<?xml version="1.0" encoding="UTF-8" standalone="no"?>
<!-- Generated by graphviz version 2.26.3 (20100126.1600)
 -->

<!-- Title: G Pages: 1 -->

<svg
   xmlns:dc="http://purl.org/dc/elements/1.1/"
   xmlns:cc="http://creativecommons.org/ns#"
   xmlns:rdf="http://www.w3.org/1999/02/22-rdf-syntax-ns#"
   xmlns:svg="http://www.w3.org/2000/svg"
   xmlns="http://www.w3.org/2000/svg"
   xmlns:sodipodi="http://sodipodi.sourceforge.net/DTD/sodipodi-0.dtd"
   xmlns:inkscape="http://www.inkscape.org/namespaces/inkscape"
   width="920.27002"
   height="455.44"
   viewBox="0 0 736.21602 364.65545"
   id="svg2"
   version="1.1"
   inkscape:version="0.47 r22583"
   sodipodi:docname="apertiumlangs.svg">
  <metadata
     id="metadata435">
    <rdf:RDF>
      <cc:Work
         rdf:about="">
        <dc:format>image/svg+xml</dc:format>
        <dc:type
           rdf:resource="http://purl.org/dc/dcmitype/StillImage" />
      </cc:Work>
    </rdf:RDF>
  </metadata>
  <defs
     id="defs433">
    <marker
       inkscape:stockid="Arrow2Mend"
       orient="auto"
       refY="0"
       refX="0"
       id="Arrow2Mend"
       style="overflow:visible">
      <path
         id="path4317"
         style="font-size:12px;fill-rule:evenodd;stroke-width:0.625;stroke-linejoin:round"
         d="M 8.7185878,4.0337352 -2.2072895,0.01601326 8.7185884,-4.0017078 c -1.7454984,2.3720609 -1.7354408,5.6174519 -6e-7,8.035443 z"
         transform="scale(-0.6,-0.6)" />
    </marker>
    <marker
       inkscape:stockid="Arrow2Mstart"
       orient="auto"
       refY="0"
       refX="0"
       id="Arrow2Mstart"
       style="overflow:visible">
      <path
         id="path4314"
         style="font-size:12px;fill-rule:evenodd;stroke-width:0.625;stroke-linejoin:round"
         d="M 8.7185878,4.0337352 -2.2072895,0.01601326 8.7185884,-4.0017078 c -1.7454984,2.3720609 -1.7354408,5.6174519 -6e-7,8.035443 z"
         transform="scale(0.6,0.6)" />
    </marker>
    <marker
       inkscape:stockid="Arrow2Lend"
       orient="auto"
       refY="0"
       refX="0"
       id="Arrow2Lend"
       style="overflow:visible">
      <path
         id="path4311"
         style="font-size:12px;fill-rule:evenodd;stroke-width:0.625;stroke-linejoin:round"
         d="M 8.7185878,4.0337352 -2.2072895,0.01601326 8.7185884,-4.0017078 c -1.7454984,2.3720609 -1.7354408,5.6174519 -6e-7,8.035443 z"
         transform="matrix(-1.1,0,0,-1.1,-1.1,0)" />
    </marker>
    <marker
       inkscape:stockid="Arrow2Lstart"
       orient="auto"
       refY="0"
       refX="0"
       id="Arrow2Lstart"
       style="overflow:visible">
      <path
         id="path4308"
         style="font-size:12px;fill-rule:evenodd;stroke-width:0.625;stroke-linejoin:round"
         d="M 8.7185878,4.0337352 -2.2072895,0.01601326 8.7185884,-4.0017078 c -1.7454984,2.3720609 -1.7354408,5.6174519 -6e-7,8.035443 z"
         transform="matrix(1.1,0,0,1.1,1.1,0)" />
    </marker>
    <inkscape:perspective
       sodipodi:type="inkscape:persp3d"
       inkscape:vp_x="0 : 330 : 1"
       inkscape:vp_y="0 : 1000 : 0"
       inkscape:vp_z="805 : 330 : 1"
       inkscape:persp3d-origin="402.5 : 220 : 1"
       id="perspective437" />
  </defs>
  <sodipodi:namedview
     pagecolor="#ffffff"
     bordercolor="#666666"
     borderopacity="1"
     objecttolerance="10"
     gridtolerance="10"
     guidetolerance="10"
     inkscape:pageopacity="0"
     inkscape:pageshadow="2"
     inkscape:window-width="1272"
     inkscape:window-height="748"
     id="namedview431"
     showgrid="false"
     inkscape:zoom="0.68"
     inkscape:cx="513.828"
     inkscape:cy="328.20388"
     inkscape:window-x="0"
     inkscape:window-y="27"
     inkscape:window-maximized="0"
     inkscape:current-layer="svg2"
     showguides="true"
     inkscape:guide-bbox="true" />
  <g
     id="g8571">
    <g
       transform="translate(1.9304039,431.19001)"
       id="node1"
       class="node">
      <title
         id="title10">es</title>
      <ellipse
         cx="283"
         cy="-286"
         rx="22.124599"
         ry="22.627399"
         id="ellipse12"
         d="m 305.1246,-286 c 0,12.49677 -9.90552,22.6274 -22.1246,22.6274 -12.21908,0 -22.1246,-10.13063 -22.1246,-22.6274 0,-12.49677 9.90552,-22.6274 22.1246,-22.6274 12.21908,0 22.1246,10.13063 22.1246,22.6274 z"
         sodipodi:cx="283"
         sodipodi:cy="-286"
         sodipodi:rx="22.124599"
         sodipodi:ry="22.627399"
         style="fill:none;stroke:#000000" />
      <text
         x="283"
         y="-282.39999"
         font-size="14.00"
         id="text14"
         style="font-size:14px;text-anchor:middle;font-family:'Times Roman,serif'">es</text>
    </g>
    <g
       transform="translate(1.9304039,431.19001)"
       id="node3"
       class="node">
      <title
         id="title17">ca</title>
      <ellipse
         cx="455"
         cy="-292"
         rx="22.124599"
         ry="22.627399"
         id="ellipse19"
         d="m 477.1246,-292 c 0,12.49677 -9.90552,22.6274 -22.1246,22.6274 -12.21908,0 -22.1246,-10.13063 -22.1246,-22.6274 0,-12.49677 9.90552,-22.6274 22.1246,-22.6274 12.21908,0 22.1246,10.13063 22.1246,22.6274 z"
         sodipodi:cx="455"
         sodipodi:cy="-292"
         sodipodi:rx="22.124599"
         sodipodi:ry="22.627399"
         style="fill:none;stroke:#000000" />
      <text
         x="455"
         y="-288.39999"
         font-size="14.00"
         id="text21"
         style="font-size:14px;text-anchor:middle;font-family:'Times Roman,serif'">ca</text>
    </g>
    <g
       transform="translate(1.9304039,431.19001)"
       id="edge2"
       class="edge">
      <title
         id="title24">es-&gt;ca</title>
      <path
         d="m 310.718,-286.967 c 32.012,-1.117 84.372,-2.943 116.437,-4.062"
         id="path26"
         style="fill:none;stroke:#000000" />
      <polygon
         points="310.422,-288.708 310.544,-285.21 310.544,-285.21 305.486,-286.784 "
         id="polygon28"
         style="fill:#000000;stroke:#000000" />
      <polygon
         points="427.573,-289.292 427.45,-292.79 427.45,-292.79 432.508,-291.215 "
         id="polygon30"
         style="fill:#000000;stroke:#000000" />
    </g>
    <g
       transform="translate(1.9304039,431.19001)"
       id="node5"
       class="node">
      <title
         id="title33">gl</title>
      <ellipse
         cx="455"
         cy="-120"
         rx="20.005899"
         ry="20.5061"
         id="ellipse35"
         d="m 475.0059,-120 c 0,11.32521 -8.95695,20.5061 -20.0059,20.5061 -11.04895,0 -20.0059,-9.18089 -20.0059,-20.5061 0,-11.32521 8.95695,-20.5061 20.0059,-20.5061 11.04895,0 20.0059,9.18089 20.0059,20.5061 z"
         sodipodi:cx="455"
         sodipodi:cy="-120"
         sodipodi:rx="20.005899"
         sodipodi:ry="20.5061"
         style="fill:none;stroke:#000000" />
      <text
         x="455"
         y="-116.4"
         font-size="14.00"
         id="text37"
         style="font-size:14px;text-anchor:middle;font-family:'Times Roman,serif'">gl</text>
    </g>
    <g
       transform="translate(1.9304039,431.19001)"
       id="edge4"
       class="edge">
      <title
         id="title40">es-&gt;gl</title>
      <path
         d="M 289.419,-259.071 C 299.65,-218.585 320.684,-145.05 342,-129 c 25.099,18.899 62.838,17.727 87.692,14.167"
         id="path42"
         style="fill:none;stroke:#000000" />
      <polygon
         points="291.018,-259.891 287.623,-259.041 287.623,-259.041 288.107,-264.317 "
         id="polygon44"
         style="fill:#000000;stroke:#000000" />
      <polygon
         points="430.118,-113.128 429.582,-116.587 429.582,-116.587 434.791,-115.623 "
         id="polygon46"
         style="fill:#000000;stroke:#000000" />
    </g>
    <g
       transform="translate(1.9304039,431.19001)"
       id="node7"
       class="node">
      <title
         id="title49">pt</title>
      <ellipse
         cx="369"
         cy="-160"
         rx="21.9203"
         ry="21.9203"
         id="ellipse51"
         d="m 390.9203,-160 c 0,12.10625 -9.81405,21.9203 -21.9203,21.9203 -12.10625,0 -21.9203,-9.81405 -21.9203,-21.9203 0,-12.10625 9.81405,-21.9203 21.9203,-21.9203 12.10625,0 21.9203,9.81405 21.9203,21.9203 z"
         sodipodi:cx="369"
         sodipodi:cy="-160"
         sodipodi:rx="21.9203"
         sodipodi:ry="21.9203"
         style="fill:none;stroke:#000000" />
      <text
         x="369"
         y="-156.39999"
         font-size="14.00"
         id="text53"
         style="font-size:14px;text-anchor:middle;font-family:'Times Roman,serif'">pt</text>
    </g>
    <g
       transform="translate(1.9304039,431.19001)"
       id="edge6"
       class="edge">
      <title
         id="title56">es-&gt;pt</title>
      <path
         d="m 298.491,-263.305 c 15.563,22.803 39.415,57.749 54.989,80.567"
         id="path58"
         style="fill:none;stroke:#000000" />
      <polygon
         points="299.769,-264.535 296.878,-262.562 296.878,-262.562 295.505,-267.679 "
         id="polygon60"
         style="fill:#000000;stroke:#000000" />
      <polygon
         points="352.216,-181.487 355.106,-183.46 355.106,-183.46 356.48,-178.344 "
         id="polygon62"
         style="fill:#000000;stroke:#000000" />
    </g>
    <g
       transform="translate(-56.942144,507.72433)"
       id="node15"
       class="node">
      <title
         id="title65">ro</title>
      <ellipse
         cx="369"
         cy="-474"
         rx="21.9203"
         ry="21.9203"
         id="ellipse67"
         d="m 390.9203,-474 c 0,12.10625 -9.81405,21.9203 -21.9203,21.9203 -12.10625,0 -21.9203,-9.81405 -21.9203,-21.9203 0,-12.10625 9.81405,-21.9203 21.9203,-21.9203 12.10625,0 21.9203,9.81405 21.9203,21.9203 z"
         sodipodi:cx="369"
         sodipodi:cy="-474"
         sodipodi:rx="21.9203"
         sodipodi:ry="21.9203"
         style="fill:none;stroke:#000000" />
      <text
         x="369"
         y="-470.39999"
         font-size="14.00"
         id="text69"
         style="font-size:14px;text-anchor:middle;font-family:'Times Roman,serif'">ro</text>
    </g>
    <g
       transform="translate(1.9304039,431.19001)"
       id="node22"
       class="node">
      <title
         id="title81">eo</title>
      <ellipse
         cx="538"
         cy="-147"
         rx="22.837999"
         ry="23.334499"
         id="ellipse83"
         d="m 560.838,-147 c 0,12.88729 -10.22492,23.3345 -22.838,23.3345 -12.61308,0 -22.838,-10.44721 -22.838,-23.3345 0,-12.88729 10.22492,-23.3345 22.838,-23.3345 12.61308,0 22.838,10.44721 22.838,23.3345 z"
         sodipodi:cx="538"
         sodipodi:cy="-147"
         sodipodi:rx="22.837999"
         sodipodi:ry="23.334499"
         style="fill:none;stroke:#000000" />
      <text
         x="538"
         y="-143.39999"
         font-size="14.00"
         id="text85"
         style="font-size:14px;text-anchor:middle;font-family:'Times Roman,serif'">eo</text>
    </g>
    <g
       transform="translate(1.9304039,431.19001)"
       id="edge26"
       class="edge">
      <title
         id="title88">es-&gt;eo</title>
      <path
         d="m 303.009,-275.093 c 46.044,25.099 159.417,86.897 209.965,114.451"
         id="path90"
         style="fill:none;stroke:#000000" />
      <polygon
         points="512.147,-159.099 513.823,-162.172 513.823,-162.172 517.375,-158.243 "
         id="polygon92"
         style="fill:#000000;stroke:#000000" />
    </g>
    <g
       transform="translate(-131.12156,451.20668)"
       id="node42"
       class="node">
      <title
         id="title95">ast</title>
      <ellipse
         cx="369"
         cy="-407"
         rx="26.8701"
         ry="26.8701"
         id="ellipse97"
         d="m 395.8701,-407 c 0,14.83995 -12.03015,26.8701 -26.8701,26.8701 -14.83995,0 -26.8701,-12.03015 -26.8701,-26.8701 0,-14.83995 12.03015,-26.8701 26.8701,-26.8701 14.83995,0 26.8701,12.03015 26.8701,26.8701 z"
         sodipodi:cx="369"
         sodipodi:cy="-407"
         sodipodi:rx="26.8701"
         sodipodi:ry="26.8701"
         style="fill:none;stroke:#000000" />
      <text
         x="369"
         y="-403.39999"
         font-size="14.00"
         id="text99"
         style="font-size:14px;text-anchor:middle;font-family:'Times Roman,serif'">ast</text>
    </g>
    <g
       transform="translate(1.9304039,431.19001)"
       id="node46"
       class="node">
      <title
         id="title111">it</title>
      <ellipse
         cx="538"
         cy="-315"
         rx="17.887899"
         ry="18.3848"
         id="ellipse113"
         d="m 555.8879,-315 c 0,10.15364 -8.00869,18.3848 -17.8879,18.3848 -9.87921,0 -17.8879,-8.23116 -17.8879,-18.3848 0,-10.15364 8.00869,-18.3848 17.8879,-18.3848 9.87921,0 17.8879,8.23116 17.8879,18.3848 z"
         sodipodi:cx="538"
         sodipodi:cy="-315"
         sodipodi:rx="17.887899"
         sodipodi:ry="18.3848"
         style="fill:none;stroke:#000000" />
      <text
         x="538"
         y="-311.39999"
         font-size="14.00"
         id="text115"
         style="font-size:14px;text-anchor:middle;font-family:'Times Roman,serif'">it</text>
    </g>
    <g
       transform="translate(-199.41372,425.30276)"
       id="node51"
       class="node">
      <title
         id="title127">an</title>
      <ellipse
         cx="369"
         cy="-338"
         rx="24.041599"
         ry="24.041599"
         id="ellipse129"
         d="m 393.0416,-338 c 0,13.27781 -10.76379,24.0416 -24.0416,24.0416 -13.27781,0 -24.0416,-10.76379 -24.0416,-24.0416 0,-13.27781 10.76379,-24.0416 24.0416,-24.0416 13.27781,0 24.0416,10.76379 24.0416,24.0416 z"
         sodipodi:cx="369"
         sodipodi:cy="-338"
         sodipodi:rx="24.041599"
         sodipodi:ry="24.041599"
         style="fill:none;stroke:#000000" />
      <text
         x="369"
         y="-334.39999"
         font-size="14.00"
         id="text131"
         style="font-size:14px;text-anchor:middle;font-family:'Times Roman,serif'">an</text>
    </g>
    <g
       transform="translate(1.9304039,431.19001)"
       id="edge24"
       class="edge">
      <title
         id="title143">ca-&gt;eo</title>
      <path
         d="m 467.172,-273.46 c 3.565,5.567 7.42,11.721 10.828,17.46 16.784,28.264 34.815,61.441 46.68,83.704"
         id="path145"
         style="fill:none;stroke:#000000" />
      <polygon
         points="523.223,-171.31 526.313,-172.954 526.313,-172.954 527.116,-167.717 "
         id="polygon147"
         style="fill:#000000;stroke:#000000" />
    </g>
    <g
       transform="translate(1.9304039,431.19001)"
       id="edge50"
       class="edge">
      <title
         id="title150">ca-&gt;it</title>
      <path
         d="m 481.67,-299.391 c 10.759,-2.981 23.049,-6.387 33.398,-9.254"
         id="path152"
         style="fill:none;stroke:#000000" />
      <polygon
         points="481.158,-301.065 482.093,-297.692 482.093,-297.692 476.807,-298.043 "
         id="polygon154"
         style="fill:#000000;stroke:#000000" />
      <polygon
         points="515.626,-306.984 514.692,-310.357 514.692,-310.357 519.977,-310.006 "
         id="polygon156"
         style="fill:#000000;stroke:#000000" />
    </g>
    <g
       transform="translate(1.9304039,431.19001)"
       id="edge36"
       class="edge">
      <title
         id="title159">pt-&gt;ca</title>
      <path
         d="m 385.896,-181.857 c 3.424,-4.614 6.942,-9.494 10.104,-14.143 16.228,-23.859 33.342,-52.094 44.934,-71.741"
         id="path161"
         style="fill:none;stroke:#000000" />
      <polygon
         points="384.386,-182.76 387.188,-180.662 387.188,-180.662 382.791,-177.708 "
         id="polygon163"
         style="fill:#000000;stroke:#000000" />
      <polygon
         points="442.732,-267.346 439.715,-269.121 439.715,-269.121 443.758,-272.544 "
         id="polygon165"
         style="fill:#000000;stroke:#000000" />
    </g>
    <g
       transform="translate(1.9304039,431.19001)"
       id="edge32"
       class="edge">
      <title
         id="title168">pt-&gt;gl</title>
      <path
         d="m 394.195,-148.281 c 11.766,5.472 25.692,11.95 37.247,17.324"
         id="path170"
         style="fill:none;stroke:#000000" />
      <polygon
         points="394.652,-149.999 393.176,-146.825 393.176,-146.825 389.381,-150.521 "
         id="polygon172"
         style="fill:#000000;stroke:#000000" />
      <polygon
         points="430.963,-129.25 432.439,-132.423 432.439,-132.423 436.235,-128.728 "
         id="polygon174"
         style="fill:#000000;stroke:#000000" />
    </g>
    <g
       transform="translate(1.9304039,431.19001)"
       id="node8"
       class="node">
      <title
         id="title177">en</title>
      <ellipse
         cx="200"
         cy="-187"
         rx="24.041599"
         ry="24.041599"
         id="ellipse179"
         d="m 224.0416,-187 c 0,13.27781 -10.76379,24.0416 -24.0416,24.0416 -13.27781,0 -24.0416,-10.76379 -24.0416,-24.0416 0,-13.27781 10.76379,-24.0416 24.0416,-24.0416 13.27781,0 24.0416,10.76379 24.0416,24.0416 z"
         sodipodi:cx="200"
         sodipodi:cy="-187"
         sodipodi:rx="24.041599"
         sodipodi:ry="24.041599"
         style="fill:none;stroke:#000000" />
      <text
         x="200"
         y="-183.39999"
         font-size="14.00"
         id="text181"
         style="font-size:14px;text-anchor:middle;font-family:'Times Roman,serif'">en</text>
    </g>
    <g
       transform="translate(1.9304039,431.19001)"
       id="edge34"
       class="edge">
      <title
         id="title184">en-&gt;es</title>
      <path
         d="m 218.93,-209.579 c 13.904,-16.585 32.666,-38.964 46.292,-55.216"
         id="path186"
         style="fill:none;stroke:#000000" />
      <polygon
         points="217.483,-210.577 220.165,-208.328 220.165,-208.328 215.612,-205.621 "
         id="polygon188"
         style="fill:#000000;stroke:#000000" />
      <polygon
         points="266.698,-263.831 264.016,-266.08 264.016,-266.08 268.569,-268.787 "
         id="polygon190"
         style="fill:#000000;stroke:#000000" />
    </g>
    <g
       transform="translate(1.9304039,431.19001)"
       id="edge8"
       class="edge">
      <title
         id="title193">en-&gt;ca</title>
      <path
         d="m 227.413,-198.288 c 49.652,-20.444 153.782,-63.322 202.034,-83.19"
         id="path195"
         style="fill:none;stroke:#000000" />
      <polygon
         points="226.587,-199.84 227.919,-196.604 227.919,-196.604 222.63,-196.318 "
         id="polygon197"
         style="fill:#000000;stroke:#000000" />
      <polygon
         points="430.26,-279.92 428.927,-283.157 428.927,-283.157 434.217,-283.442 "
         id="polygon199"
         style="fill:#000000;stroke:#000000" />
    </g>
    <g
       transform="translate(1.9304039,431.19001)"
       id="edge20"
       class="edge">
      <title
         id="title202">en-&gt;gl</title>
      <path
         d="m 223.487,-169.199 c 26.943,19.203 73.256,48.587 118.513,60.199 29.642,7.605 64.893,1.94 88.046,-3.697"
         id="path204"
         style="fill:none;stroke:#000000" />
      <polygon
         points="224.413,-170.689 222.368,-167.848 222.368,-167.848 219.332,-172.189 "
         id="polygon206"
         style="fill:#000000;stroke:#000000" />
      <polygon
         points="430.665,-111.048 429.808,-114.442 429.808,-114.442 435.084,-113.97 "
         id="polygon208"
         style="fill:#000000;stroke:#000000" />
    </g>
    <g
       transform="translate(1.9304039,431.19001)"
       id="edge28"
       class="edge">
      <title
         id="title211">en-&gt;eo</title>
      <path
         d="m 212.703,-166.518 c 10.699,15.48 27.419,35.975 47.297,47.518 66.976,38.8943 94.692,23.2932 172,28 20.407,1.2425 26.98,7.4971 46,0 17.031,-6.713 32.08,-20.792 42.846,-33.154"
         id="path213"
         style="fill:none;stroke:#000000" />
      <polygon
         points="522.433,-123.32 519.763,-125.582 519.763,-125.582 524.33,-128.267 "
         id="polygon215"
         style="fill:#000000;stroke:#000000" />
    </g>
    <g
       transform="translate(1.9304039,431.19001)"
       id="node10"
       class="node">
      <title
         id="title218">fr</title>
      <ellipse
         cx="617"
         cy="-109"
         rx="19.0919"
         ry="19.0919"
         id="ellipse220"
         d="m 636.0919,-109 c 0,10.544165 -8.54773,19.0919 -19.0919,19.0919 -10.54417,0 -19.0919,-8.547735 -19.0919,-19.0919 0,-10.54417 8.54773,-19.0919 19.0919,-19.0919 10.54417,0 19.0919,8.54773 19.0919,19.0919 z"
         sodipodi:cx="617"
         sodipodi:cy="-109"
         sodipodi:rx="19.0919"
         sodipodi:ry="19.0919"
         style="fill:none;stroke:#000000" />
      <text
         x="617"
         y="-105.4"
         font-size="14.00"
         id="text222"
         style="font-size:14px;text-anchor:middle;font-family:'Times Roman,serif'">fr</text>
    </g>
    <g
       transform="translate(1.9304039,431.19001)"
       id="edge16"
       class="edge">
      <title
         id="title225">fr-&gt;es</title>
      <path
         d="M 594.348,-100.21 C 542.462,-81.7166 413.947,-45.4861 342,-109 319.203,-129.125 298.108,-214.946 288.482,-259.267"
         id="path227"
         style="fill:none;stroke:#000000" />
      <polygon
         points="595.02,-98.5922 593.829,-101.883 593.829,-101.883 599.126,-101.94 "
         id="polygon229"
         style="fill:#000000;stroke:#000000" />
      <polygon
         points="290.183,-259.68 286.761,-258.944 286.761,-258.944 287.42,-264.2 "
         id="polygon231"
         style="fill:#000000;stroke:#000000" />
    </g>
    <g
       transform="translate(1.9304039,431.19001)"
       id="edge10"
       class="edge">
      <title
         id="title234">fr-&gt;ca</title>
      <path
         d="M 602.381,-128.586 C 591.558,-142.839 576.276,-162.459 562,-179 c -29.203,-33.835 -65.345,-71.129 -87.264,-93.281"
         id="path236"
         style="fill:none;stroke:#000000" />
      <polygon
         points="601.178,-127.275 603.969,-129.387 603.969,-129.387 605.591,-124.344 "
         id="polygon238"
         style="fill:#000000;stroke:#000000" />
      <polygon
         points="475.842,-273.652 473.357,-271.188 473.357,-271.188 471.079,-275.971 "
         id="polygon240"
         style="fill:#000000;stroke:#000000" />
    </g>
    <g
       transform="translate(186.79021,539.5155)"
       id="node12"
       class="node">
      <title
         id="title243">oc</title>
      <ellipse
         cx="200"
         cy="-449"
         rx="22.124599"
         ry="22.627399"
         id="ellipse245"
         d="m 222.1246,-449 c 0,12.49677 -9.90552,22.6274 -22.1246,22.6274 -12.21908,0 -22.1246,-10.13063 -22.1246,-22.6274 0,-12.49677 9.90552,-22.6274 22.1246,-22.6274 12.21908,0 22.1246,10.13063 22.1246,22.6274 z"
         sodipodi:cx="200"
         sodipodi:cy="-449"
         sodipodi:rx="22.124599"
         sodipodi:ry="22.627399"
         style="fill:none;stroke:#000000" />
      <text
         x="200"
         y="-445.39999"
         font-size="14.00"
         id="text247"
         style="font-size:14px;text-anchor:middle;font-family:'Times Roman,serif'">oc</text>
    </g>
    <g
       transform="translate(1.9304039,431.19001)"
       id="node19"
       class="node">
      <title
         id="title268">cy</title>
      <ellipse
         cx="113"
         cy="-222"
         rx="22.124599"
         ry="22.627399"
         id="ellipse270"
         d="m 135.1246,-222 c 0,12.49677 -9.90552,22.6274 -22.1246,22.6274 -12.21908,0 -22.124599,-10.13063 -22.124599,-22.6274 0,-12.49677 9.905519,-22.6274 22.124599,-22.6274 12.21908,0 22.1246,10.13063 22.1246,22.6274 z"
         sodipodi:cx="113"
         sodipodi:cy="-222"
         sodipodi:rx="22.124599"
         sodipodi:ry="22.627399"
         style="fill:none;stroke:#000000" />
      <text
         x="113"
         y="-218.39999"
         font-size="14.00"
         id="text272"
         style="font-size:14px;text-anchor:middle;font-family:'Times Roman,serif'">cy</text>
    </g>
    <g
       transform="translate(1.9304039,431.19001)"
       id="edge22"
       class="edge">
      <title
         id="title275">cy-&gt;en</title>
      <path
         d="m 134.06,-213.527 c 11.632,4.679 26.211,10.544 38.701,15.569"
         id="path277"
         style="fill:none;stroke:#000000" />
      <polygon
         points="172.321,-196.249 173.627,-199.496 173.627,-199.496 177.613,-196.006 "
         id="polygon279"
         style="fill:#000000;stroke:#000000" />
    </g>
    <g
       transform="translate(1.9304039,431.19001)"
       id="edge56"
       class="edge">
      <title
         id="title282">eo-&gt;fr</title>
      <path
         d="m 563.76,-134.609 c 10.142,4.878 21.664,10.42 31.389,15.099"
         id="path284"
         style="fill:none;stroke:#000000" />
      <polygon
         points="564.435,-136.226 562.918,-133.072 562.918,-133.072 559.171,-136.817 "
         id="polygon286"
         style="fill:#000000;stroke:#000000" />
      <polygon
         points="594.501,-117.88 596.018,-121.035 596.018,-121.035 599.765,-117.29 "
         id="polygon288"
         style="fill:#000000;stroke:#000000" />
    </g>
    <g
       transform="translate(1.9304039,431.19001)"
       id="node25"
       class="node">
      <title
         id="title291">eu</title>
      <ellipse
         cx="113"
         cy="-286"
         rx="24.041599"
         ry="24.041599"
         id="ellipse293"
         d="m 137.0416,-286 c 0,13.27781 -10.76379,24.0416 -24.0416,24.0416 -13.277809,0 -24.041599,-10.76379 -24.041599,-24.0416 0,-13.27781 10.76379,-24.0416 24.041599,-24.0416 13.27781,0 24.0416,10.76379 24.0416,24.0416 z"
         sodipodi:cx="113"
         sodipodi:cy="-286"
         sodipodi:rx="24.041599"
         sodipodi:ry="24.041599"
         style="fill:none;stroke:#000000" />
      <text
         x="113"
         y="-282.39999"
         font-size="14.00"
         id="text295"
         style="font-size:14px;text-anchor:middle;font-family:'Times Roman,serif'">eu</text>
    </g>
    <g
       transform="translate(1.9304039,431.19001)"
       id="edge30"
       class="edge">
      <title
         id="title298">eu-&gt;es</title>
      <path
         d="m 137.357,-286 c 31.199,0 85.141,0 117.893,0"
         id="path300"
         style="fill:none;stroke:#000000" />
      <polygon
         points="255.318,-284.25 255.318,-287.75 255.318,-287.75 260.318,-286 "
         id="polygon302"
         style="fill:#000000;stroke:#000000" />
    </g>
    <g
       transform="translate(1.9304039,431.19001)"
       id="edge60"
       class="edge">
      <title
         id="title305">eu-&gt;en</title>
      <path
         d="m 128.957,-267.842 c 14.594,16.607 36.214,41.209 51.768,58.908"
         id="path307"
         style="fill:none;stroke:#000000" />
      <polygon
         points="179.529,-207.644 182.158,-209.954 182.158,-209.954 184.144,-205.043 "
         id="polygon309"
         style="fill:#000000;stroke:#000000" />
    </g>
    <g
       transform="translate(591.83337,508.90175)"
       id="node30"
       class="node">
      <title
         id="title312">nn</title>
      <ellipse
         cx="25"
         cy="-352"
         rx="24.2437"
         ry="24.748699"
         id="ellipse314"
         d="m 49.2437,-352 c 0,13.66833 -10.854274,24.7487 -24.2437,24.7487 -13.389426,0 -24.24370003,-11.08037 -24.24370003,-24.7487 0,-13.66833 10.85427403,-24.7487 24.24370003,-24.7487 13.389426,0 24.2437,11.08037 24.2437,24.7487 z"
         sodipodi:cx="25"
         sodipodi:cy="-352"
         sodipodi:rx="24.2437"
         sodipodi:ry="24.748699"
         style="fill:none;stroke:#000000" />
      <text
         x="25"
         y="-348.39999"
         font-size="14.00"
         id="text316"
         style="font-size:14px;text-anchor:middle;font-family:'Times Roman,serif'">nn</text>
    </g>
    <g
       transform="translate(591.83337,508.90175)"
       id="node32"
       class="node">
      <title
         id="title319">nb</title>
      <ellipse
         cx="113"
         cy="-352"
         rx="24.041599"
         ry="24.041599"
         id="ellipse321"
         d="m 137.0416,-352 c 0,13.27781 -10.76379,24.0416 -24.0416,24.0416 -13.277809,0 -24.041599,-10.76379 -24.041599,-24.0416 0,-13.27781 10.76379,-24.0416 24.041599,-24.0416 13.27781,0 24.0416,10.76379 24.0416,24.0416 z"
         sodipodi:cx="113"
         sodipodi:cy="-352"
         sodipodi:rx="24.041599"
         sodipodi:ry="24.041599"
         style="fill:none;stroke:#000000" />
      <text
         x="113"
         y="-348.39999"
         font-size="14.00"
         id="text323"
         style="font-size:14px;text-anchor:middle;font-family:'Times Roman,serif'">nb</text>
    </g>
    <g
       transform="translate(591.83337,508.90175)"
       id="edge38"
       class="edge">
      <title
         id="title326">nn-&gt;nb</title>
      <path
         d="m 54.5394,-352 c 9.4339,0 19.8657,0 29.2744,0"
         id="path328"
         style="fill:none;stroke:#000000" />
      <polygon
         points="54.5129,-353.75 54.5129,-350.25 54.5129,-350.25 49.5129,-352 "
         id="polygon330"
         style="fill:#000000;stroke:#000000" />
      <polygon
         points="83.9227,-350.25 83.9227,-353.75 83.9227,-353.75 88.9227,-352 "
         id="polygon332"
         style="fill:#000000;stroke:#000000" />
    </g>
    <g
       transform="translate(593.01084,650.19587)"
       id="node33"
       class="node">
      <title
         id="title335">sv</title>
      <ellipse
         cx="25"
         cy="-417"
         rx="22.124599"
         ry="22.627399"
         id="ellipse337"
         d="m 47.124599,-417 c 0,12.49677 -9.90552,22.6274 -22.124599,22.6274 -12.219079,0 -22.1245995,-10.13063 -22.1245995,-22.6274 0,-12.49677 9.9055205,-22.6274 22.1245995,-22.6274 12.219079,0 22.124599,10.13063 22.124599,22.6274 z"
         sodipodi:cx="25"
         sodipodi:cy="-417"
         sodipodi:rx="22.124599"
         sodipodi:ry="22.627399"
         style="fill:none;stroke:#000000" />
      <text
         x="25"
         y="-413.39999"
         font-size="14.00"
         id="text339"
         style="font-size:14px;text-anchor:middle;font-family:'Times Roman,serif'">sv</text>
    </g>
    <g
       transform="translate(593.01084,650.19587)"
       id="node35"
       class="node">
      <title
         id="title342">da</title>
      <ellipse
         cx="113"
         cy="-417"
         rx="22.837999"
         ry="23.334499"
         id="ellipse344"
         d="m 135.838,-417 c 0,12.88729 -10.22492,23.3345 -22.838,23.3345 -12.61308,0 -22.837999,-10.44721 -22.837999,-23.3345 0,-12.88729 10.224919,-23.3345 22.837999,-23.3345 12.61308,0 22.838,10.44721 22.838,23.3345 z"
         sodipodi:cx="113"
         sodipodi:cy="-417"
         sodipodi:rx="22.837999"
         sodipodi:ry="23.334499"
         style="fill:none;stroke:#000000" />
      <text
         x="113"
         y="-413.39999"
         font-size="14.00"
         id="text346"
         style="font-size:14px;text-anchor:middle;font-family:'Times Roman,serif'">da</text>
    </g>
    <g
       transform="translate(593.01084,650.19587)"
       id="edge40"
       class="edge">
      <title
         id="title349">sv-&gt;da</title>
      <path
         d="m 52.9298,-417 c 10.0222,0 21.3339,0 31.4165,0"
         id="path351"
         style="fill:none;stroke:#000000" />
      <polygon
         points="52.6622,-418.75 52.6622,-415.25 52.6622,-415.25 47.6622,-417 "
         id="polygon353"
         style="fill:#000000;stroke:#000000" />
      <polygon
         points="84.4935,-415.25 84.4935,-418.75 84.4935,-418.75 89.4935,-417 "
         id="polygon355"
         style="fill:#000000;stroke:#000000" />
    </g>
    <g
       transform="translate(170.30589,342.88119)"
       id="node36"
       class="node">
      <title
         id="title358">br</title>
      <ellipse
         cx="538"
         cy="-22"
         rx="21.9203"
         ry="21.9203"
         id="ellipse360"
         d="m 559.9203,-22 c 0,12.1062471 -9.81405,21.92029953 -21.9203,21.92029953 -12.10625,0 -21.9203,-9.81405243 -21.9203,-21.92029953 0,-12.106247 9.81405,-21.9203 21.9203,-21.9203 12.10625,0 21.9203,9.814053 21.9203,21.9203 z"
         sodipodi:cx="538"
         sodipodi:cy="-22"
         sodipodi:rx="21.9203"
         sodipodi:ry="21.9203"
         style="fill:none;stroke:#000000" />
      <text
         x="538"
         y="-18.4"
         font-size="14.00"
         id="text362"
         style="font-size:14px;text-anchor:middle;font-family:'Times Roman,serif'">br</text>
    </g>
    <g
       transform="translate(1.9304039,431.19001)"
       id="node38"
       class="node">
      <title
         id="title372">mk</title>
      <ellipse
         cx="113"
         cy="-99"
         rx="26.8701"
         ry="26.8701"
         id="ellipse374"
         d="m 139.8701,-99 c 0,14.839946 -12.03015,26.8701 -26.8701,26.8701 -14.839946,0 -26.8701,-12.030154 -26.8701,-26.8701 0,-14.83995 12.030154,-26.8701 26.8701,-26.8701 14.83995,0 26.8701,12.03015 26.8701,26.8701 z"
         sodipodi:cx="113"
         sodipodi:cy="-99"
         sodipodi:rx="26.8701"
         sodipodi:ry="26.8701"
         style="fill:none;stroke:#000000" />
      <text
         x="113"
         y="-95.400002"
         font-size="14.00"
         id="text376"
         style="font-size:14px;text-anchor:middle;font-family:'Times Roman,serif'">mk</text>
    </g>
    <g
       transform="translate(1.9304039,431.19001)"
       id="edge54"
       class="edge">
      <title
         id="title379">mk-&gt;en</title>
      <path
         d="m 132.308,-118.53 c 14.03,-14.191 32.982,-33.361 47.264,-47.807"
         id="path381"
         style="fill:none;stroke:#000000" />
      <polygon
         points="180.826,-165.116 178.337,-167.577 178.337,-167.577 183.097,-169.902 "
         id="polygon383"
         style="fill:#000000;stroke:#000000" />
    </g>
    <g
       transform="translate(1.9304039,431.19001)"
       id="node40"
       class="node">
      <title
         id="title386">bg</title>
      <ellipse
         cx="200"
         cy="-99"
         rx="22.837999"
         ry="23.334499"
         id="ellipse388"
         d="m 222.838,-99 c 0,12.887288 -10.22492,23.334499 -22.838,23.334499 -12.61308,0 -22.838,-10.447211 -22.838,-23.334499 0,-12.88729 10.22492,-23.3345 22.838,-23.3345 12.61308,0 22.838,10.44721 22.838,23.3345 z"
         sodipodi:cx="200"
         sodipodi:cy="-99"
         sodipodi:rx="22.837999"
         sodipodi:ry="23.334499"
         style="fill:none;stroke:#000000" />
      <text
         x="200"
         y="-95.400002"
         font-size="14.00"
         id="text390"
         style="font-size:14px;text-anchor:middle;font-family:'Times Roman,serif'">bg</text>
    </g>
    <g
       transform="translate(1.9304039,431.19001)"
       id="edge44"
       class="edge">
      <title
         id="title393">mk-&gt;bg</title>
      <path
         d="m 145.073,-99 c 8.62,0 17.883,0 26.302,0"
         id="path395"
         style="fill:none;stroke:#000000" />
      <polygon
         points="145.05,-100.75 145.05,-97.2501 145.05,-97.2501 140.05,-99 "
         id="polygon397"
         style="fill:#000000;stroke:#000000" />
      <polygon
         points="171.494,-97.2501 171.494,-100.75 171.494,-100.75 176.494,-99 "
         id="polygon399"
         style="fill:#000000;stroke:#000000" />
    </g>
    <g
       transform="translate(1.9304039,431.19001)"
       id="node43"
       class="node">
      <title
         id="title402">is</title>
      <ellipse
         cx="113"
         cy="-163"
         rx="19.0919"
         ry="19.0919"
         id="ellipse404"
         d="m 132.0919,-163 c 0,10.54417 -8.54773,19.0919 -19.0919,19.0919 -10.54417,0 -19.0919,-8.54773 -19.0919,-19.0919 0,-10.54417 8.54773,-19.0919 19.0919,-19.0919 10.54417,0 19.0919,8.54773 19.0919,19.0919 z"
         sodipodi:cx="113"
         sodipodi:cy="-163"
         sodipodi:rx="19.0919"
         sodipodi:ry="19.0919"
         style="fill:none;stroke:#000000" />
      <text
         x="113"
         y="-159.39999"
         font-size="14.00"
         id="text406"
         style="font-size:14px;text-anchor:middle;font-family:'Times Roman,serif'">is</text>
    </g>
    <g
       transform="translate(1.9304039,431.19001)"
       id="edge48"
       class="edge">
      <title
         id="title409">is-&gt;en</title>
      <path
         d="m 131.45,-168.09 c 11.625,-3.207 26.871,-7.412 40.032,-11.043"
         id="path411"
         style="fill:none;stroke:#000000" />
      <polygon
         points="172.245,-177.528 171.314,-180.902 171.314,-180.902 176.6,-180.545 "
         id="polygon413"
         style="fill:#000000;stroke:#000000" />
    </g>
    <g
       transform="translate(1.9304039,431.19001)"
       id="node53"
       class="node">
      <title
         id="title416">sh</title>
      <ellipse
         cx="25"
         cy="-99"
         rx="22.124599"
         ry="22.627399"
         id="ellipse418"
         d="m 47.124599,-99 c 0,12.496768 -9.90552,22.627399 -22.124599,22.627399 -12.219079,0 -22.1245995,-10.130631 -22.1245995,-22.627399 0,-12.49677 9.9055205,-22.6274 22.1245995,-22.6274 12.219079,0 22.124599,10.13063 22.124599,22.6274 z"
         sodipodi:cx="25"
         sodipodi:cy="-99"
         sodipodi:rx="22.124599"
         sodipodi:ry="22.627399"
         style="fill:none;stroke:#000000" />
      <text
         x="25"
         y="-95.400002"
         font-size="14.00"
         id="text420"
         style="font-size:14px;text-anchor:middle;font-family:'Times Roman,serif'">sh</text>
    </g>
    <g
       transform="translate(1.9304039,431.19001)"
       id="edge62"
       class="edge">
      <title
         id="title423">sh-&gt;mk</title>
      <path
         d="m 52.7029,-99 c 8.8861,0 18.8049,0 27.9906,0"
         id="path425"
         style="fill:none;stroke:#000000" />
      <polygon
         points="52.6622,-100.75 52.6622,-97.2501 52.6622,-97.2501 47.6622,-99 "
         id="polygon427"
         style="fill:#000000;stroke:#000000" />
      <polygon
         points="80.71,-97.2501 80.7101,-100.75 80.7101,-100.75 85.7101,-99 "
         id="polygon429"
         style="fill:#000000;stroke:#000000" />
    </g>
    <path
       id="path3495"
       d="m 191.80582,98.434034 74.17941,32.968626"
       style="fill:none;stroke:#000000;stroke-width:0.80066669px;stroke-linecap:butt;stroke-linejoin:miter;stroke-opacity:1;marker-start:url(#Arrow2Mstart);marker-mid:none;marker-end:url(#Arrow2Mend)" />
    <path
       id="path3499"
       d="M 310.72837,54.868442 295.4215,124.33796"
       style="fill:none;stroke:#000000;stroke-width:0.80066669px;stroke-linecap:butt;stroke-linejoin:miter;stroke-opacity:1;marker-start:url(#Arrow2Mstart);marker-end:url(#Arrow2Mend)" />
    <path
       sodipodi:nodetypes="cc"
       id="path3505"
       d="M 302.45683,133.78694 C 349.69979,38.827132 410.79337,-15.306962 529.76362,101.15512"
       style="fill:none;stroke:#000000;stroke-width:0.74191982px;stroke-linecap:butt;stroke-linejoin:miter;stroke-opacity:1;marker-start:url(#Arrow2Mstart);marker-end:url(#Arrow2Mend)" />
    <path
       id="path3507"
       d="m 370.77837,106.67619 -65.93726,30.61373"
       style="fill:none;stroke:#000000;stroke-width:0.80066669px;stroke-linecap:butt;stroke-linejoin:miter;stroke-opacity:1;marker-start:url(#Arrow2Mstart);marker-end:url(#Arrow2Mend)" />
    <path
       id="path3509"
       d="M 442.60287,119.62815 407.27935,103.14384"
       style="fill:none;stroke:#000000;stroke-width:0.80066669px;stroke-linecap:butt;stroke-linejoin:miter;stroke-opacity:1;marker-start:url(#Arrow2Mstart);marker-end:url(#Arrow2Mend)" />
    <path
       id="path3511"
       d="M 248.32346,68.997834 276.58229,123.1605"
       style="fill:none;stroke:#000000;stroke-width:0.80066669px;stroke-linecap:butt;stroke-linejoin:miter;stroke-opacity:1;marker-start:url(#Arrow2Mstart);marker-end:url(#Arrow2Mend)" />
    <path
       id="path6625"
       d="m 686.33523,322.14972 -49.45294,0"
       style="fill:none;stroke:#000000;stroke-width:0.80066669px;stroke-linecap:butt;stroke-linejoin:miter;stroke-opacity:1;marker-start:url(#Arrow2Mstart);marker-end:url(#Arrow2Mend)" />
  </g>
</svg>
